{
	"asset":{
		"generator":"Khronos glTF Blender I/O v3.5.30",
		"version":"2.0"
	},
	"scene":0,
	"scenes":[
		{
			"name":"Scene",
			"nodes":[
				1
			]
		}
	],
	"nodes":[
		{
			"mesh":0,
			"name":"Icing"
		},
		{
			"children":[
				0
			],
			"mesh":1,
			"name":"Donut",
			"rotation":[
				0.21390481293201447,
				-0.36448726058006287,
				-0.45872029662132263,
				0.7816453576087952
			],
			"translation":[
				-4.345634806668386e-06,
				0.06335438042879105,
				0.002733921632170677
			]
		}
	],
	"animations":[
		{
			"channels":[
				{
					"sampler":0,
					"target":{
						"node":1,
						"path":"rotation"
					}
				}
			],
			"name":"DonutAction.001",
			"samplers":[
				{
					"input":8,
					"interpolation":"LINEAR",
					"output":9
				}
			]
		},
		{
			"channels":[
				{
					"sampler":0,
					"target":{
						"node":0,
						"path":"translation"
					}
				},
				{
					"sampler":1,
					"target":{
						"node":0,
						"path":"rotation"
					}
				},
				{
					"sampler":2,
					"target":{
						"node":0,
						"path":"scale"
					}
				}
			],
			"name":"Icing",
			"samplers":[
				{
					"input":8,
					"interpolation":"LINEAR",
					"output":10
				},
				{
					"input":8,
					"interpolation":"LINEAR",
					"output":11
				},
				{
					"input":8,
					"interpolation":"LINEAR",
					"output":12
				}
			]
		}
	],
	"materials":[
		{
			"doubleSided":true,
			"name":"Material.001",
			"pbrMetallicRoughness":{
				"baseColorFactor":[
					0.8000000715255737,
					0.300930917263031,
					0.4593283534049988,
					1
				],
				"metallicFactor":0,
				"roughnessFactor":0.265625
			}
		},
		{
			"doubleSided":true,
			"name":"Material.002",
			"pbrMetallicRoughness":{
				"baseColorTexture":{
					"index":0
				},
				"metallicFactor":0,
				"roughnessFactor":0.5
			}
		}
	],
	"meshes":[
		{
			"name":"Torus.005",
			"primitives":[
				{
					"attributes":{
						"POSITION":0,
						"TEXCOORD_0":1,
						"NORMAL":2
					},
					"indices":3,
					"material":0
				}
			]
		},
		{
			"name":"Torus.004",
			"primitives":[
				{
					"attributes":{
						"POSITION":4,
						"TEXCOORD_0":5,
						"NORMAL":6
					},
					"indices":7,
					"material":1
				}
			]
		}
	],
	"textures":[
		{
			"sampler":0,
			"source":0
		}
	],
	"images":[
		{
			"bufferView":8,
			"mimeType":"image/png",
			"name":"Donut Base"
		}
	],
	"accessors":[
		{
			"bufferView":0,
			"componentType":5126,
			"count":11044,
			"max":[
				0.05094587802886963,
				0.02242932841181755,
				0.051371682435274124
			],
			"min":[
				-0.05178932845592499,
				-0.010028628632426262,
				-0.05374070256948471
			],
			"type":"VEC3"
		},
		{
			"bufferView":1,
			"componentType":5126,
			"count":11044,
			"type":"VEC2"
		},
		{
			"bufferView":2,
			"componentType":5126,
			"count":11044,
			"type":"VEC3"
		},
		{
			"bufferView":3,
			"componentType":5123,
			"count":65856,
			"type":"SCALAR"
		},
		{
			"bufferView":4,
			"componentType":5126,
			"count":2673,
			"max":[
				0.04873834177851677,
				0.020202236250042915,
				0.048024486750364304
			],
			"min":[
				-0.04899138584733009,
				-0.020463693886995316,
				-0.04946465790271759
			],
			"type":"VEC3"
		},
		{
			"bufferView":5,
			"componentType":5126,
			"count":2673,
			"type":"VEC2"
		},
		{
			"bufferView":6,
			"componentType":5126,
			"count":2673,
			"type":"VEC3"
		},
		{
			"bufferView":7,
			"componentType":5123,
			"count":15360,
			"type":"SCALAR"
		},
		{
			"bufferView":9,
			"componentType":5126,
			"count":301,
			"max":[
				10.066666666666666
			],
			"min":[
				0.06666666666666667
			],
			"type":"SCALAR"
		},
		{
			"bufferView":10,
			"componentType":5126,
			"count":301,
			"type":"VEC4"
		},
		{
			"bufferView":11,
			"componentType":5126,
			"count":301,
			"type":"VEC3"
		},
		{
			"bufferView":12,
			"componentType":5126,
			"count":301,
			"type":"VEC4"
		},
		{
			"bufferView":13,
			"componentType":5126,
			"count":301,
			"type":"VEC3"
		}
	],
	"bufferViews":[
		{
			"buffer":0,
			"byteLength":132528,
			"byteOffset":0,
			"target":34962
		},
		{
			"buffer":0,
			"byteLength":88352,
			"byteOffset":132528,
			"target":34962
		},
		{
			"buffer":0,
			"byteLength":132528,
			"byteOffset":220880,
			"target":34962
		},
		{
			"buffer":0,
			"byteLength":131712,
			"byteOffset":353408,
			"target":34963
		},
		{
			"buffer":0,
			"byteLength":32076,
			"byteOffset":485120,
			"target":34962
		},
		{
			"buffer":0,
			"byteLength":21384,
			"byteOffset":517196,
			"target":34962
		},
		{
			"buffer":0,
			"byteLength":32076,
			"byteOffset":538580,
			"target":34962
		},
		{
			"buffer":0,
			"byteLength":30720,
			"byteOffset":570656,
			"target":34963
		},
		{
			"buffer":0,
			"byteLength":9987,
			"byteOffset":601376
		},
		{
			"buffer":0,
			"byteLength":1204,
			"byteOffset":611364
		},
		{
			"buffer":0,
			"byteLength":4816,
			"byteOffset":612568
		},
		{
			"buffer":0,
			"byteLength":3612,
			"byteOffset":617384
		},
		{
			"buffer":0,
			"byteLength":4816,
			"byteOffset":620996
		},
		{
			"buffer":0,
			"byteLength":3612,
			"byteOffset":625812
		}
	],
	"samplers":[
		{
			"magFilter":9729,
			"minFilter":9987
		}
	],
	"buffers":[
		{
			"byteLength":629424,
			"uri":"data:application/octet-stream;base64,"
		}
	]
}
