{
	"asset":{
		"generator":"Khronos glTF Blender I/O v3.5.30",
		"version":"2.0"
	},
	"scene":0,
	"scenes":[
		{
			"name":"Scene",
			"nodes":[
				0
			]
		}
	],
	"nodes":[
		{
			"mesh":0,
			"name":"Donut",
			"rotation":[
				0.21390481293201447,
				-0.36448726058006287,
				-0.45872029662132263,
				0.7816453576087952
			],
			"translation":[
				-4.345634806668386e-06,
				0.06335438042879105,
				0.002733921632170677
			]
		}
	],
	"animations":[
		{
			"channels":[
				{
					"sampler":0,
					"target":{
						"node":0,
						"path":"rotation"
					}
				}
			],
			"name":"DonutAction.001",
			"samplers":[
				{
					"input":4,
					"interpolation":"LINEAR",
					"output":5
				}
			]
		}
	],
	"materials":[
		{
			"doubleSided":true,
			"name":"Material.002",
			"pbrMetallicRoughness":{
				"baseColorTexture":{
					"index":0
				},
				"metallicFactor":0,
				"roughnessFactor":0.5
			}
		}
	],
	"meshes":[
		{
			"name":"Torus.004",
			"primitives":[
				{
					"attributes":{
						"POSITION":0,
						"TEXCOORD_0":1,
						"NORMAL":2
					},
					"indices":3,
					"material":0
				}
			]
		}
	],
	"textures":[
		{
			"sampler":0,
			"source":0
		}
	],
	"images":[
		{
			"bufferView":4,
			"mimeType":"image/png",
			"name":"Donut Base"
		}
	],
	"accessors":[
		{
			"bufferView":0,
			"componentType":5126,
			"count":2673,
			"max":[
				0.04873834177851677,
				0.020202236250042915,
				0.048024486750364304
			],
			"min":[
				-0.04899138584733009,
				-0.020463693886995316,
				-0.04946465790271759
			],
			"type":"VEC3"
		},
		{
			"bufferView":1,
			"componentType":5126,
			"count":2673,
			"type":"VEC2"
		},
		{
			"bufferView":2,
			"componentType":5126,
			"count":2673,
			"type":"VEC3"
		},
		{
			"bufferView":3,
			"componentType":5123,
			"count":15360,
			"type":"SCALAR"
		},
		{
			"bufferView":5,
			"componentType":5126,
			"count":301,
			"max":[
				10.066666666666666
			],
			"min":[
				0.06666666666666667
			],
			"type":"SCALAR"
		},
		{
			"bufferView":6,
			"componentType":5126,
			"count":301,
			"type":"VEC4"
		}
	],
	"bufferViews":[
		{
			"buffer":0,
			"byteLength":32076,
			"byteOffset":0,
			"target":34962
		},
		{
			"buffer":0,
			"byteLength":21384,
			"byteOffset":32076,
			"target":34962
		},
		{
			"buffer":0,
			"byteLength":32076,
			"byteOffset":53460,
			"target":34962
		},
		{
			"buffer":0,
			"byteLength":30720,
			"byteOffset":85536,
			"target":34963
		},
		{
			"buffer":0,
			"byteLength":9987,
			"byteOffset":116256
		},
		{
			"buffer":0,
			"byteLength":1204,
			"byteOffset":126244
		},
		{
			"buffer":0,
			"byteLength":4816,
			"byteOffset":127448
		}
	],
	"samplers":[
		{
			"magFilter":9729,
			"minFilter":9987
		}
	],
	"buffers":[
		{
			"byteLength":132264,
			"uri":"data:application/octet-stream;base64,"
		}
	]
}
